<?xml version="1.0" encoding="UTF-8"?>
<svg xmlns="http://www.w3.org/2000/svg" xmlns:xlink="http://www.w3.org/1999/xlink" viewBox="0 0 100 100" width="100px" height="100px">
<g id="surface1452524">
<path style=" stroke:none;fill-rule:nonzero;fill:rgb(100%,100%,100%);fill-opacity:1;" d="M 24 6 C 14.078125 6 6 14.078125 6 24 L 6 76 C 6 85.921875 14.078125 94 24 94 L 76 94 C 85.921875 94 94 85.921875 94 76 L 94 24 C 94 14.078125 85.921875 6 76 6 Z M 76 16 L 82 16 C 83.101562 16 84 16.898438 84 18 L 84 24 C 84 25.101562 83.101562 26 82 26 L 76 26 C 74.898438 26 74 25.101562 74 24 L 74 18 C 74 16.898438 74.898438 16 76 16 Z M 50 20 C 60.660156 20 70.039062 25.601562 75.359375 34 L 84 34 L 84 74 C 84 79.519531 79.519531 84 74 84 L 26 84 C 20.480469 84 16 79.519531 16 74 L 16 34 L 24.640625 34 C 29.960938 25.601562 39.339844 20 50 20 Z M 50 24 C 35.660156 24 24 35.660156 24 50 C 24 64.339844 35.660156 76 50 76 C 64.339844 76 76 64.339844 76 50 C 76 35.660156 64.339844 24 50 24 Z M 50 32 C 59.921875 32 68 40.078125 68 50 C 68 59.921875 59.921875 68 50 68 C 40.078125 68 32 59.921875 32 50 C 32 40.078125 40.078125 32 50 32 Z M 50 32 "/>
</g>
</svg>
