<?xml version="1.0" encoding="UTF-8"?>
<svg xmlns="http://www.w3.org/2000/svg" xmlns:xlink="http://www.w3.org/1999/xlink" viewBox="0 0 128 128" width="128px" height="128px">
<g id="surface1473802">
<path style=" stroke:none;fill-rule:nonzero;fill:rgb(100%,100%,100%);fill-opacity:1;" d="M 64 12 C 35.285156 12 12 35.285156 12 64 C 12 86.03125 25.707031 104.847656 45.050781 112.421875 C 44.597656 108.308594 44.183594 101.992188 45.230469 97.503906 C 46.175781 93.449219 51.328125 71.65625 51.328125 71.65625 C 51.328125 71.65625 49.773438 68.539062 49.773438 63.9375 C 49.773438 56.707031 53.964844 51.308594 59.183594 51.308594 C 63.621094 51.308594 65.761719 54.640625 65.761719 58.632812 C 65.761719 63.097656 62.921875 69.765625 61.453125 75.945312 C 60.226562 81.125 64.046875 85.347656 69.152344 85.347656 C 78.394531 85.347656 85.496094 75.601562 85.496094 61.535156 C 85.496094 49.085938 76.554688 40.378906 63.78125 40.378906 C 48.984375 40.378906 40.300781 51.476562 40.300781 62.945312 C 40.300781 67.414062 42.023438 72.207031 44.171875 74.8125 C 44.597656 75.328125 44.65625 75.78125 44.53125 76.304688 C 44.136719 77.945312 43.261719 81.476562 43.089844 82.203125 C 42.863281 83.15625 42.335938 83.355469 41.351562 82.894531 C 34.855469 79.871094 30.792969 70.378906 30.792969 62.75 C 30.792969 46.347656 42.710938 31.28125 65.152344 31.28125 C 83.195312 31.28125 97.210938 44.132812 97.210938 61.316406 C 97.210938 79.238281 85.910156 93.660156 70.226562 93.660156 C 64.957031 93.660156 60.007812 90.921875 58.3125 87.6875 C 58.3125 87.6875 55.703125 97.617188 55.070312 100.050781 C 53.894531 104.566406 50.726562 110.230469 48.605469 113.683594 C 53.46875 115.1875 58.640625 116 64 116 C 92.714844 116 116 92.714844 116 64 C 116 35.285156 92.71875 12 64 12 Z M 64 12 "/>
</g>
</svg>
